<?xml version="1.0" encoding="UTF-8"?>
<svg version="1.1" xmlns="http://www.w3.org/2000/svg" width="200" height="200">
  <!-- Circle Background -->
  <circle cx="100" cy="100" r="100" fill="#015EE9" />
  
  <!-- First Inner Path -->
  <path d="M0 0 C0.66 0 1.32 0 2 0 C2 0.99 2 1.98 2 3 C3.32 3 4.64 3 6 3 C6 3.66 6 4.32 6 5 C6.9590625 5.433125 6.9590625 5.433125 7.9375 5.875 C10 7 10 7 11 9 C12.485 8.505 12.485 8.505 14 8 C14.33 7.34 14.66 6.68 15 6 C15.495 6.495 15.495 6.495 16 7 C16.33 6.01 16.66 5.02 17 4 C20.375 3.8125 20.375 3.8125 24 4 C24.99 5.485 24.99 5.485 26 7 C26.433125 6.525625 26.86625 6.05125 27.3125 5.5625 C30.37391914 2.72785265 33.87717192 2.60714642 37.9296875 2.64453125 C41.66346135 3.28561318 43.42156682 5.29578959 46 8 C47.0592918 11.17787541 47.11458939 13.42588943 47.09765625 16.76171875 C47.09282227 18.43911133 47.09282227 18.43911133 47.08789062 20.15039062 C47.07532227 21.90125977 47.07532227 21.90125977 47.0625 23.6875 C47.05798828 24.86634766 47.05347656 26.04519531 47.04882812 27.25976562 C47.03703273 30.17322789 47.0205727 33.08658863 47 36 C44.69 36 42.38 36 40 36 C39.970271 34.92516357 39.970271 34.92516357 39.93994141 33.82861328 C39.84490481 30.5936937 39.73513981 27.35943906 39.625 24.125 C39.5940625 22.99707031 39.563125 21.86914062 39.53125 20.70703125 C39.49257812 19.63066406 39.45390625 18.55429688 39.4140625 17.4453125 C39.3826416 16.45031738 39.3512207 15.45532227 39.31884766 14.43017578 C39.22752917 11.82145483 39.22752917 11.82145483 37 10 C34.78927023 9.75746187 34.78927023 9.75746187 32.375 9.875 C31.14910156 9.90207031 31.14910156 9.90207031 29.8984375 9.9296875 C28.95871094 9.96449219 28.95871094 9.96449219 28 10 C27.00544091 12.98367726 26.80440368 15.2004192 26.68359375 18.32421875 C26.64169922 19.35224609 26.59980469 20.38027344 26.55664062 21.43945312 C26.51732422 22.51130859 26.47800781 23.58316406 26.4375 24.6875 C26.37272461 26.31268555 26.37272461 26.31268555 26.30664062 27.97070312 C26.20053162 30.64700791 26.09847639 33.32340526 26 36 C23.03 36 20.06 36 17 36 C17 35.34 17 34.68 17 34 C15.02 34 13.04 34 11 34 C10.67 34.99 10.34 35.98 10 37 C10.99 37.495 10.99 37.495 12 38 C12 38.66 12 39.32 12 40 C10.68 39.67 9.36 39.34 8 39 C8 38.34 8 37.68 8 37 C6.71416016 37.05220703 6.71416016 37.05220703 5.40234375 37.10546875 C-6.50992138 37.38749532 -6.50992138 37.38749532 -12 34 C-17.49216676 28.21877183 -17.24996396 22.80393448 -17.62109375 15.15234375 C-17.68207572 11.9061457 -17.68207572 11.9061457 -20 10 C-22.02077346 9.94098078 -22.02077346 9.94098078 -24 11 C-27.31859654 14.67416046 -27.61131185 18.52350816 -27.50390625 23.28515625 C-26.59677393 28.17241951 -23.85250192 32.00989315 -21 36 C-26.02072539 36.96891192 -26.02072539 36.96891192 -29 36 C-31.88052941 32.62412722 -33.9589963 28.92893212 -36 25 C-36.4846875 25.7940625 -36.969375 26.588125 -37.46875 27.40625 C-42.87852238 35.64574947 -42.87852238 35.64574947 -46.3125 36.73046875 C-48.5 36.6875 -48.5 36.6875 -52 36 C-51.52949219 35.27554688 -51.05898438 34.55109375 -50.57421875 33.8046875 C-49.95160156 32.83789062 -49.32898437 31.87109375 -48.6875 30.875 C-48.07261719 29.92367187 -47.45773438 28.97234375 -46.82421875 27.9921875 C-46.22222656 27.00476563 -45.62023438 26.01734375 -45 25 C-44.34 24.03964844 -43.68 23.07929687 -43 22.08984375 C-41.56786323 18.85945806 -41.56786323 18.85945806 -43.67578125 15.38671875 C-44.5306623 14.1368694 -45.41071948 12.90394437 -46.3125 11.6875 C-47.184636 10.44213549 -48.05578535 9.19607924 -48.92578125 7.94921875 C-49.95251953 6.48935547 -49.95251953 6.48935547 -51 5 C-51 4.67 -51 4.34 -51 4 C-45.89119171 3.11917098 -45.89119171 3.11917098 -43 4 C-40.43451673 7.05925829 -38.69753977 10.39915807 -37 13 C-35.30246023 10.39915807 -33.56548327 7.05925829 -31 4 C-30.0780777 4.50332589 -29.14739872 5.23325812 -28.3125 6.0625 C-27.69937891 6.83216897 -27.12209742 7.8001576 -26.4375 8.6875 C-23.65676225 11.24238851 -22.65951489 14.83622566 -21 17 C-17.34048511 14.83622566 -16.34323775 11.24238851 -13.5625 8.6875 C-12.87790258 7.8001576 -12.30062109 6.83216897 -11.6875 6.0625 C-10.85260128 5.23325812 -9.9219223 4.50332589 -9 4 C-5.52047935 5.72117495 -4.48002274 6.48073263 -3.5 7 C-2.5 7.5 -2 7 -1 7 C0.14 7 0.14 7 0 7 C0.09 7 0 7 0 7 C0.09 7 0.09 7 0 7 C0.09 7 0.09 7 0 7 C0 7 0.01 7 0 7 C0 7 0 7 0 7 C0 7 0.01 7 0 7 C0 7 0 7 0 7 C0 7 C0 7 0 7 C0 7 C0 7 0 7 0 C0 7 C0 C0 7 0 C0 Z"/>
</svg>
